<?xml version="1.0" encoding="UTF-8"?><svg id="Layer_2" xmlns="http://www.w3.org/2000/svg" viewBox="0 0 412.54 345.87"><defs><style>.cls-1{fill:#0075f6;stroke-width:0px;}</style></defs><g id="Layer_1-2"><path class="cls-1" d="m206.78,308.64c-2.32-12.8-4.32-24.29-6.5-35.74-11.56-60.61-25.81-120.45-51.76-176.83-15.46-33.59-34.74-64.59-62.32-89.81-1.76-1.61-3.54-3.19-5.64-5.08,3.42-.75,5.87,1.05,8.36,2.15,27.41,12.17,50.11,30.65,70.13,52.65,19.26,21.17,35.2,44.55,46.67,70.86.27.61.73,1.14,1.32,2.05,8.81-20.45,20.11-39.05,33.6-56.34,2.32-2.97,1.31-6.68,1.71-10,.62-5.28.33-10.67.59-16,.24-5.03-3.49-3-5.78-3.3-3.42-.45-2.82,1.91-2.57,4.01,1.49,12.53-3.57,23-13.88,28.82-10.06,5.68-22.08,4.7-31.52-2.57-10.03-7.72-13.59-22.32-7.65-33.95,2.01-3.94,1.05-5.44-2.24-7.52-7.37-4.67-14.47-9.76-23.01-15.59h14.1c14.48,0,28.95.07,43.43-.06,3.27-.03,5.9.83,8.58,2.71,10.02,7.01,20.2,13.78,30.29,20.69,1.2.83,2.8,1.31,3.38,2.94q-8.47,1.09-8.17,10.27c.09,2.84-.11,5.72,1.28,8.9,23.74-26.7,50.1-49.14,83.73-61.92.49,1.67-.74,2.04-1.37,2.58-29.59,25.72-49.95,58.01-66.21,93.18-22.81,49.35-36.56,101.51-47.45,154.52-3.88,18.86-7.22,37.82-11.11,58.36Z"/><path class="cls-1" d="m245.9,296.89c39.14-8.2,77.64-6.21,115.45,7.12,9.71,3.42,19.03,7.76,29.05,12.75,0-2.53,0-4.33,0-6.14,0-51.87,0-103.73,0-155.6,0-6.22.06-6.34,5.45-3.89,5.15,2.34,11.87,3.22,14.97,7.56,3.15,4.4.97,11.01.98,16.64.09,54.62.05,109.25.05,163.87,0,1.85,0,3.7,0,6.67-51.4-30.4-104.58-51.86-164.99-47.92-1.02.29-1.3-.11-.98-1.06Z"/><path class="cls-1" d="m166.64,296.89c-39.14-8.2-77.64-6.21-115.45,7.12-9.71,3.42-19.03,7.76-29.05,12.75,0-2.53,0-4.33,0-6.14,0-51.87,0-103.73,0-155.6,0-6.22-.06-6.34-5.45-3.89-5.15,2.34-11.87,3.22-14.97,7.56-3.15,4.4-.97,11.01-.98,16.64-.09,54.62-.05,109.25-.05,163.87,0,1.85,0,3.7,0,6.67,51.4-30.4,104.58-51.86,164.99-47.92,1.02.29,1.3-.11.98-1.06Z"/><path class="cls-1" d="m379.16,112.59c0,61.05,0,122.05-.04,183.06,0,.3-.26.55-.34.77-41.64-15.14-83.1-17.75-124.48-7.64-9.94,2.39-19.84,5.5-29.73,9.39,8.79-6.61,18.3-11.86,28.33-15.91,4.69-1.96,9.51-3.63,14.46-5.08,27.18-8.11,54.86-9.13,82.85-5.59.68.09,1.41.09,2.05.26,4.39,1.24,5.33-.47,5.33-4.82-.17-47.18-.13-94.37-.13-141.51,0-1.71-1.02-3.24-2.56-3.97-.73-.3-1.45-.64-2.18-.94-4.44-1.96-9-3.58-13.65-5.03-9.3-2.77-18.94-4.39-28.67-4.69-9.77-.38-19.5,1.11-28.88,4.05-5.84,1.62-11.26,4.22-16.55,7.3,1.41-3.84,2.9-7.64,4.48-11.39,2.77-1.75,5.63-3.24,8.66-4.52,9.85-4.65,20.69-7.72,31.7-8.7,11.01-1.15,22.18-.73,33.1,1.11,4.86.81,9.77,1.83,14.55,3.2.55.13,1.15.3,1.71.47,2.69.73,5.33,1.62,8.02,2.52,1.88.68,3.63,1.37,5.5,2.13.85.34,1.75.77,2.73,1.19.73.34,1.49.64,2.22.98,1.75.73,1.58,2.05,1.54,3.37Z"/><path class="cls-1" d="m33.38,112.59c0,61.05,0,122.05.04,183.06,0,.3.26.55.34.77,41.64-15.14,83.1-17.75,124.48-7.64,9.94,2.39,19.84,5.5,29.73,9.39-8.79-6.61-18.3-11.86-28.33-15.91-4.69-1.96-9.51-3.63-14.46-5.08-27.18-8.11-54.86-9.13-82.85-5.59-.68.09-1.41.09-2.05.26-4.39,1.24-5.33-.47-5.33-4.82.17-47.18.13-94.37.13-141.51,0-1.71,1.02-3.24,2.56-3.97.73-.3,1.45-.64,2.18-.94,4.44-1.96,9-3.58,13.65-5.03,9.3-2.77,18.94-4.39,28.67-4.69,9.77-.38,19.5,1.11,28.88,4.05,5.84,1.62,11.26,4.22,16.55,7.3-1.41-3.84-2.9-7.64-4.48-11.39-2.77-1.75-5.63-3.24-8.66-4.52-9.85-4.65-20.69-7.72-31.7-8.7-11.01-1.15-22.18-.73-33.1,1.11-4.86.81-9.77,1.83-14.55,3.2-.55.13-1.15.3-1.71.47-2.69.73-5.33,1.62-8.02,2.52-1.88.68-3.63,1.37-5.5,2.13-.85.34-1.75.77-2.73,1.19-.73.34-1.49.64-2.22.98-1.75.73-1.58,2.05-1.54,3.37Z"/></g></svg>