<svg width="1219" height="1386" viewBox="0 0 1219 1386" fill="none" xmlns="http://www.w3.org/2000/svg">
<path d="M0.854233 0.3125C320.337 0.3125 640.675 0.3125 961.012 0.3125H1203.61C1213.87 0.3125 1218.99 5.72264 1218.99 16.5429C1218.99 469.286 1218.99 921.176 1218.99 1373.92C1218.99 1377.34 1218.99 1380.75 1218.99 1385.02C815.793 1385.02 413.449 1385.02 10.2508 1385.02C1.70847 1385.02 0 1383.32 0 1374.77C0.854233 916.905 0.854233 459.036 0.854233 0.3125Z" fill="#B92C2C"/>
<path d="M586.848 424.019C586.848 481.252 586.848 538.486 586.848 595.719C586.848 603.408 585.14 605.97 576.597 605.97C462.984 605.97 349.371 605.97 235.758 605.97C227.216 605.97 224.653 603.408 224.653 594.865C224.653 481.252 224.653 367.639 224.653 254.026C224.653 245.484 227.216 243.775 235.758 243.775C349.371 243.775 462.984 243.775 576.597 243.775C584.285 243.775 586.848 245.484 586.848 254.026C586.848 311.26 586.848 367.639 586.848 424.019Z" fill="#FEFEFE"/>
<path d="M586.848 832.322C586.848 889.555 586.848 945.935 586.848 1003.17C586.848 1010.86 585.14 1013.42 576.597 1013.42C462.984 1013.42 349.371 1013.42 235.758 1013.42C227.216 1013.42 224.653 1011.71 224.653 1002.31C224.653 888.701 224.653 775.088 224.653 661.475C224.653 652.933 227.216 650.37 235.758 650.37C349.371 650.37 462.984 650.37 576.597 650.37C585.14 650.37 586.848 652.933 586.848 660.621C586.848 717.855 586.848 775.088 586.848 832.322Z" fill="#FEFEFE"/>
<path d="M994.361 831.468C994.361 887.847 994.361 944.226 994.361 1000.61C994.361 1009.15 992.652 1012.56 983.256 1012.56C869.643 1012.56 756.884 1012.56 643.271 1012.56C634.728 1012.56 632.166 1010 632.166 1001.46C632.166 887.847 632.166 774.234 632.166 660.621C632.166 651.224 635.583 650.37 643.271 650.37C756.884 650.37 869.643 650.37 983.256 650.37C991.798 650.37 994.361 652.933 993.506 661.475C993.506 718.709 993.506 775.088 993.506 832.322" fill="#FEFEFE"/>
<path d="M633 424.019C633 367.639 633 311.26 633 254.88C633 247.192 633.854 243.775 643.251 243.775C756.864 243.775 870.477 243.775 984.09 243.775C991.778 243.775 994.341 245.484 994.341 254.026C994.341 367.639 994.341 482.106 994.341 596.574C994.341 605.116 991.778 606.824 984.09 606.824C870.477 606.824 756.864 606.824 643.251 606.824C633.854 606.824 633 603.407 633 595.719C633 538.486 633 482.106 633 424.873" fill="#FEFEFE"/>
<path d="M434.836 1180.88C427.148 1180.88 421.168 1180.88 414.334 1180.88C410.917 1180.88 409.209 1180.03 409.209 1175.76C409.209 1171.49 411.772 1172.34 414.334 1172.34C421.168 1172.34 427.148 1172.34 433.982 1172.34C445.941 1172.34 446.795 1174.05 443.378 1185.15C439.107 1200.53 425.439 1209.93 407.501 1209.07C389.562 1208.22 375.04 1195.4 372.477 1178.32C369.914 1160.38 379.311 1143.3 395.541 1137.32C410.063 1132.19 422.877 1134.75 433.982 1145C435.69 1146.71 441.67 1149.28 437.399 1153.55C433.982 1157.82 431.419 1155.26 428.002 1151.84C418.606 1142.44 404.084 1141.59 392.979 1149.28C382.728 1156.96 378.457 1170.63 383.582 1182.59C387.853 1194.55 399.812 1200.53 413.48 1198.82C423.731 1197.97 432.273 1192.84 433.982 1180.88" fill="#FDFCFC"/>
<path d="M681.718 1173.18C681.718 1163.78 681.718 1155.24 681.718 1145.85C681.718 1139.01 684.281 1137.3 690.26 1137.3C697.094 1137.3 703.074 1137.3 709.908 1137.3C729.555 1137.3 743.223 1152.68 743.223 1173.18C743.223 1192.83 729.555 1207.35 710.762 1208.2C691.969 1208.77 682.572 1199.66 682.572 1180.87V1173.18" fill="#FDFBFB"/>
<path d="M993.433 1206.51C986.599 1209.07 983.182 1207.37 980.62 1202.24C978.057 1197.12 974.64 1191.99 972.077 1186.86C968.66 1178.32 961.826 1180.03 954.993 1180.88C947.304 1181.74 951.576 1188.57 950.721 1191.99C950.721 1195.41 950.721 1198.82 950.721 1203.1C950.721 1206.51 949.013 1207.37 945.596 1207.37C942.179 1207.37 941.325 1205.66 941.325 1203.1C941.325 1182.59 941.325 1162.09 941.325 1141.59C941.325 1136.46 944.742 1136.46 948.159 1136.46C955.847 1136.46 963.535 1136.46 971.223 1136.46C981.474 1136.46 987.453 1142.44 990.87 1150.99C993.433 1159.53 992.579 1168.07 984.891 1173.2C977.203 1178.32 979.765 1182.59 983.182 1187.72C986.599 1192.84 990.016 1198.82 993.433 1204.8" fill="#FDFCFC"/>
<path d="M591.166 1206.5C584.332 1209.06 580.061 1207.35 579.207 1201.37C577.498 1192.83 572.373 1191.12 565.539 1191.97C561.268 1191.97 557.851 1191.97 553.58 1191.97C545.892 1191.12 541.62 1193.68 540.766 1201.37C539.912 1207.35 535.641 1209.91 528.807 1206.5C536.495 1185.14 545.037 1163.78 552.725 1142.43C554.434 1139.01 556.142 1137.3 559.559 1137.3C563.83 1137.3 566.393 1139.01 567.247 1143.28C574.935 1164.64 582.624 1185.14 591.166 1207.35" fill="#FDFCFC"/>
<path d="M286.993 1203.1C286.993 1203.1 286.993 1207.37 284.43 1208.22C281.867 1208.22 278.45 1208.22 276.742 1205.66C274.179 1201.39 276.742 1193.7 269.908 1193.7C261.366 1192.85 251.969 1193.7 242.573 1193.7C237.447 1193.7 238.302 1199.68 236.593 1203.1C234.885 1207.37 232.322 1210.79 228.051 1209.08C222.925 1207.37 227.197 1203.1 228.051 1201.39C234.885 1182.6 241.718 1164.66 248.552 1145.86C250.261 1142.45 251.115 1139.03 256.24 1138.18C261.366 1138.18 263.074 1140.74 264.783 1145.01C271.617 1163.8 278.45 1182.6 285.284 1201.39C285.284 1203.1 286.139 1203.95 286.139 1203.95" fill="#FDFCFC"/>
<path d="M844.81 1173.18V1201.37C844.81 1201.37 844.81 1208.2 840.539 1208.2C835.413 1208.2 836.267 1204.79 836.267 1201.37V1143.28C836.267 1143.28 836.268 1137.3 840.539 1137.3C845.664 1137.3 845.664 1139.87 845.664 1143.28C845.664 1153.53 845.664 1162.93 845.664 1173.18" fill="#FEFEFE"/>
<path d="M323.758 424.002C323.758 382.998 323.758 342.849 323.758 301.846C323.758 294.158 324.612 290.741 334.008 290.741C381.845 290.741 429.682 290.741 477.52 290.741C485.208 290.741 487.77 292.45 486.916 300.138C486.916 311.243 486.916 322.348 486.916 332.599C486.916 339.432 484.353 341.141 478.374 341.141C447.621 341.141 416.869 341.141 386.971 341.141C378.428 341.141 376.72 343.704 376.72 351.392C376.72 364.205 376.72 377.019 376.72 389.832C376.72 396.666 378.428 398.375 385.262 398.375C412.598 398.375 440.787 398.375 468.123 398.375C475.811 398.375 478.374 400.083 477.52 407.771C477.52 418.022 477.52 428.273 477.52 438.524C477.52 445.357 475.811 447.92 468.123 447.92C440.787 447.92 413.452 447.92 386.117 447.92C377.574 447.92 375.012 449.629 375.866 458.171C375.866 471.839 375.866 485.506 375.866 498.32C375.866 506.008 377.574 508.571 385.262 507.716C416.015 507.716 447.621 507.716 478.374 507.716C486.916 507.716 489.479 509.425 488.625 517.967C488.625 529.072 488.625 540.177 488.625 552.137C488.625 557.262 486.916 558.97 481.791 558.97C431.391 558.97 380.991 558.97 331.446 558.97C323.758 558.97 323.758 554.699 323.758 549.574C323.758 507.716 323.758 466.713 323.758 424.856" fill="#B92C2C"/>
<path d="M409.994 970.729C366.428 969.875 330.55 955.353 309.195 914.35C304.923 906.661 306.632 903.245 314.32 899.828C324.571 894.702 333.967 888.723 343.364 882.743C348.489 880.18 350.198 879.326 353.615 885.306C368.991 913.495 399.743 926.309 430.496 917.767C445.018 913.495 452.706 905.807 453.56 893.848C454.414 881.034 449.289 873.346 434.767 866.512C413.411 856.262 389.493 851.991 368.137 843.448C322.862 824.655 304.069 784.506 321.154 742.649C333.967 711.896 359.594 698.229 391.201 693.957C433.058 687.978 474.062 709.334 494.563 745.211C497.98 750.337 498.834 753.754 492.001 758.025C481.75 763.15 471.499 769.13 462.102 775.964C456.123 780.235 454.414 778.526 450.997 772.547C438.184 751.191 418.536 742.649 394.618 746.066C380.95 747.774 371.554 756.316 368.991 768.276C367.282 779.381 372.408 789.632 385.221 796.465C406.577 808.425 430.496 811.842 452.706 821.238C475.77 830.635 495.417 843.448 503.96 868.221C518.482 914.35 491.146 957.915 441.601 969.02C431.35 971.583 421.099 971.583 409.994 972.437" fill="#B92C2C"/>
<path d="M686.807 964.759C706.454 907.525 726.101 852.854 744.895 797.329C755.145 767.431 766.25 737.533 776.501 706.78C779.064 699.947 781.626 696.53 789.315 697.384C805.545 697.384 821.776 697.384 838.86 697.384C843.131 697.384 845.694 697.384 847.402 702.509C877.301 788.787 908.053 875.919 939.66 963.905C922.575 963.905 906.345 963.905 890.114 963.905C885.843 963.905 884.989 960.488 884.135 957.071C879.863 945.111 875.592 934.006 872.175 922.047C870.467 916.922 867.904 915.213 862.779 915.213C830.318 915.213 798.711 915.213 767.105 915.213C761.979 915.213 759.416 916.922 757.708 922.047C754.291 934.006 750.02 945.111 746.603 957.071C745.749 960.488 744.04 963.05 739.769 963.05C722.684 963.05 706.454 963.05 688.515 963.05" fill="#B92C2C"/>
<path d="M761.939 398.384C761.939 447.075 761.939 495.766 761.939 544.457C761.939 555.562 759.377 559.834 748.272 558.125C738.021 557.271 726.916 558.125 716.665 558.125C710.685 558.125 709.831 556.417 709.831 550.437C709.831 465.868 709.831 382.153 709.831 297.584C709.831 292.459 710.685 289.042 716.665 289.896C716.665 289.896 716.665 289.896 717.519 289.896C740.583 285.625 755.105 294.167 767.919 314.669C796.109 358.235 826.861 399.238 856.759 441.949C858.468 444.512 861.03 447.075 862.739 449.638C866.156 446.221 864.447 442.804 864.447 440.241C864.447 393.258 864.447 347.13 864.447 300.147C864.447 292.459 866.156 289.042 874.698 289.896C885.803 289.896 896.908 289.896 908.867 289.896C917.41 289.896 917.41 294.167 917.41 300.147C917.41 371.902 917.41 442.804 917.41 514.559C917.41 526.519 917.41 538.478 917.41 550.437C917.41 555.562 915.701 558.125 910.576 557.271C909.722 557.271 908.013 557.271 907.159 557.271C884.949 561.542 871.281 552.146 859.322 532.498C829.424 486.37 796.109 441.949 764.502 396.675H762.793L761.939 398.384Z" fill="#B92C2C"/>
<path d="M691.081 1171.49C691.081 1171.49 691.081 1167.22 691.081 1164.66C691.935 1158.68 687.664 1149.28 693.644 1146.72C701.332 1144.16 710.729 1144.16 719.271 1147.58C729.522 1151.85 735.501 1165.51 733.793 1177.47C731.23 1189.43 722.688 1197.12 710.729 1197.98C698.2 1198.54 691.935 1192.57 691.935 1180.04V1169.79L691.081 1171.49Z" fill="#B92C2C"/>
<path d="M951.581 1158.65C949.019 1149.25 951.581 1144.98 962.686 1145.83C977.208 1146.69 983.188 1150.1 983.188 1159.5C983.188 1168.04 976.354 1171.46 963.541 1172.31C951.581 1173.17 949.873 1167.19 952.436 1158.65" fill="#BA3030"/>
<path d="M573.204 1183.42H547.577C551.848 1172.31 555.265 1161.21 560.39 1148.39C565.516 1161.21 568.932 1171.46 573.204 1183.42Z" fill="#BB3030"/>
<path d="M269.948 1183.44H245.175C248.592 1172.34 252.009 1161.23 257.988 1149.27C262.259 1161.23 266.531 1171.48 270.802 1183.44" fill="#BB3232"/>
<path d="M813.199 758.862C826.013 793.886 837.118 827.201 849.077 859.662C851.64 865.641 851.64 868.204 843.097 868.204C823.45 868.204 803.803 868.204 784.155 868.204C779.884 868.204 775.613 869.058 778.176 862.225C789.281 828.909 800.386 794.74 812.345 758.862" fill="#FEFEFE"/>
</svg>
